<svg width="487" height="57" viewBox="0 0 487 57" fill="none" xmlns="http://www.w3.org/2000/svg">
<path d="M31.36 23.54V28.2H36.44V29.7H31.36V34.5H37.04V36H29.54V22.04H37.04V23.54H31.36ZM45.1339 24.84C46.4672 24.84 47.5472 25.2467 48.3739 26.06C49.2006 26.86 49.6139 28.02 49.6139 29.54V36H47.8139V29.8C47.8139 28.7067 47.5406 27.8733 46.9939 27.3C46.4472 26.7133 45.7006 26.42 44.7539 26.42C43.7939 26.42 43.0272 26.72 42.4539 27.32C41.8939 27.92 41.6139 28.7933 41.6139 29.94V36H39.7939V25.04H41.6139V26.6C41.9739 26.04 42.4606 25.6067 43.0739 25.3C43.7006 24.9933 44.3872 24.84 45.1339 24.84ZM54.8069 26.54V33C54.8069 33.5333 54.9202 33.9133 55.1469 34.14C55.3735 34.3533 55.7669 34.46 56.3269 34.46H57.6669V36H56.0269C55.0135 36 54.2535 35.7667 53.7469 35.3C53.2402 34.8333 52.9869 34.0667 52.9869 33V26.54H51.5669V25.04H52.9869V22.28H54.8069V25.04H57.6669V26.54H54.8069ZM69.872 30.1C69.872 30.4467 69.852 30.8133 69.812 31.2H61.052C61.1187 32.28 61.4854 33.1267 62.152 33.74C62.832 34.34 63.652 34.64 64.612 34.64C65.3987 34.64 66.052 34.46 66.572 34.1C67.1054 33.7267 67.4787 33.2333 67.692 32.62H69.652C69.3587 33.6733 68.772 34.5333 67.892 35.2C67.012 35.8533 65.9187 36.18 64.612 36.18C63.572 36.18 62.6387 35.9467 61.812 35.48C60.9987 35.0133 60.3587 34.3533 59.892 33.5C59.4254 32.6333 59.192 31.6333 59.192 30.5C59.192 29.3667 59.4187 28.3733 59.872 27.52C60.3254 26.6667 60.9587 26.0133 61.772 25.56C62.5987 25.0933 63.5454 24.86 64.612 24.86C65.652 24.86 66.572 25.0867 67.372 25.54C68.172 25.9933 68.7854 26.62 69.212 27.42C69.652 28.2067 69.872 29.1 69.872 30.1ZM67.992 29.72C67.992 29.0267 67.8387 28.4333 67.532 27.94C67.2254 27.4333 66.8054 27.0533 66.272 26.8C65.752 26.5333 65.172 26.4 64.532 26.4C63.612 26.4 62.8254 26.6933 62.172 27.28C61.532 27.8667 61.1654 28.68 61.072 29.72H67.992ZM74.0944 26.82C74.4144 26.1933 74.8677 25.7067 75.4544 25.36C76.0544 25.0133 76.781 24.84 77.6344 24.84V26.72H77.1544C75.1144 26.72 74.0944 27.8267 74.0944 30.04V36H72.2744V25.04H74.0944V26.82ZM94.5073 25.04L87.9073 41.16H86.0273L88.1873 35.88L83.7673 25.04H85.7873L89.2273 33.92L92.6273 25.04H94.5073ZM101.117 36.18C100.09 36.18 99.1569 35.9467 98.3169 35.48C97.4902 35.0133 96.8369 34.3533 96.3569 33.5C95.8902 32.6333 95.6569 31.6333 95.6569 30.5C95.6569 29.38 95.8969 28.3933 96.3769 27.54C96.8702 26.6733 97.5369 26.0133 98.3769 25.56C99.2169 25.0933 100.157 24.86 101.197 24.86C102.237 24.86 103.177 25.0933 104.017 25.56C104.857 26.0133 105.517 26.6667 105.997 27.52C106.49 28.3733 106.737 29.3667 106.737 30.5C106.737 31.6333 106.484 32.6333 105.977 33.5C105.484 34.3533 104.81 35.0133 103.957 35.48C103.104 35.9467 102.157 36.18 101.117 36.18ZM101.117 34.58C101.77 34.58 102.384 34.4267 102.957 34.12C103.53 33.8133 103.99 33.3533 104.337 32.74C104.697 32.1267 104.877 31.38 104.877 30.5C104.877 29.62 104.704 28.8733 104.357 28.26C104.01 27.6467 103.557 27.1933 102.997 26.9C102.437 26.5933 101.83 26.44 101.177 26.44C100.51 26.44 99.8969 26.5933 99.3369 26.9C98.7902 27.1933 98.3502 27.6467 98.0169 28.26C97.6835 28.8733 97.5169 29.62 97.5169 30.5C97.5169 31.3933 97.6769 32.1467 97.9969 32.76C98.3302 33.3733 98.7702 33.8333 99.3169 34.14C99.8635 34.4333 100.464 34.58 101.117 34.58ZM118.85 25.04V36H117.03V34.38C116.683 34.94 116.197 35.38 115.57 35.7C114.957 36.0067 114.277 36.16 113.53 36.16C112.677 36.16 111.91 35.9867 111.23 35.64C110.55 35.28 110.01 34.7467 109.61 34.04C109.223 33.3333 109.03 32.4733 109.03 31.46V25.04H110.83V31.22C110.83 32.3 111.103 33.1333 111.65 33.72C112.197 34.2933 112.943 34.58 113.89 34.58C114.863 34.58 115.63 34.28 116.19 33.68C116.75 33.08 117.03 32.2067 117.03 31.06V25.04H118.85ZM123.743 26.82C124.063 26.1933 124.516 25.7067 125.103 25.36C125.703 25.0133 126.429 24.84 127.283 24.84V26.72H126.803C124.763 26.72 123.743 27.8267 123.743 30.04V36H121.923V25.04H123.743V26.82ZM144.716 30.1C144.716 30.4467 144.696 30.8133 144.656 31.2H135.896C135.962 32.28 136.329 33.1267 136.996 33.74C137.676 34.34 138.496 34.64 139.456 34.64C140.242 34.64 140.896 34.46 141.416 34.1C141.949 33.7267 142.322 33.2333 142.536 32.62H144.496C144.202 33.6733 143.616 34.5333 142.736 35.2C141.856 35.8533 140.762 36.18 139.456 36.18C138.416 36.18 137.482 35.9467 136.656 35.48C135.842 35.0133 135.202 34.3533 134.736 33.5C134.269 32.6333 134.036 31.6333 134.036 30.5C134.036 29.3667 134.262 28.3733 134.716 27.52C135.169 26.6667 135.802 26.0133 136.616 25.56C137.442 25.0933 138.389 24.86 139.456 24.86C140.496 24.86 141.416 25.0867 142.216 25.54C143.016 25.9933 143.629 26.62 144.056 27.42C144.496 28.2067 144.716 29.1 144.716 30.1ZM142.836 29.72C142.836 29.0267 142.682 28.4333 142.376 27.94C142.069 27.4333 141.649 27.0533 141.116 26.8C140.596 26.5333 140.016 26.4 139.376 26.4C138.456 26.4 137.669 26.6933 137.016 27.28C136.376 27.8667 136.009 28.68 135.916 29.72H142.836ZM160.298 24.84C161.151 24.84 161.911 25.02 162.578 25.38C163.245 25.7267 163.771 26.2533 164.158 26.96C164.545 27.6667 164.738 28.5267 164.738 29.54V36H162.938V29.8C162.938 28.7067 162.665 27.8733 162.118 27.3C161.585 26.7133 160.858 26.42 159.938 26.42C158.991 26.42 158.238 26.7267 157.678 27.34C157.118 27.94 156.838 28.8133 156.838 29.96V36H155.038V29.8C155.038 28.7067 154.765 27.8733 154.218 27.3C153.685 26.7133 152.958 26.42 152.038 26.42C151.091 26.42 150.338 26.7267 149.778 27.34C149.218 27.94 148.938 28.8133 148.938 29.96V36H147.118V25.04H148.938V26.62C149.298 26.0467 149.778 25.6067 150.378 25.3C150.991 24.9933 151.665 24.84 152.398 24.84C153.318 24.84 154.131 25.0467 154.838 25.46C155.545 25.8733 156.071 26.48 156.418 27.28C156.725 26.5067 157.231 25.9067 157.938 25.48C158.645 25.0533 159.431 24.84 160.298 24.84ZM167.044 30.48C167.044 29.36 167.27 28.38 167.724 27.54C168.177 26.6867 168.797 26.0267 169.584 25.56C170.384 25.0933 171.27 24.86 172.244 24.86C173.204 24.86 174.037 25.0667 174.744 25.48C175.45 25.8933 175.977 26.4133 176.324 27.04V25.04H178.164V36H176.324V33.96C175.964 34.6 175.424 35.1333 174.704 35.56C173.997 35.9733 173.17 36.18 172.224 36.18C171.25 36.18 170.37 35.94 169.584 35.46C168.797 34.98 168.177 34.3067 167.724 33.44C167.27 32.5733 167.044 31.5867 167.044 30.48ZM176.324 30.5C176.324 29.6733 176.157 28.9533 175.824 28.34C175.49 27.7267 175.037 27.26 174.464 26.94C173.904 26.6067 173.284 26.44 172.604 26.44C171.924 26.44 171.304 26.6 170.744 26.92C170.184 27.24 169.737 27.7067 169.404 28.32C169.07 28.9333 168.904 29.6533 168.904 30.48C168.904 31.32 169.07 32.0533 169.404 32.68C169.737 33.2933 170.184 33.7667 170.744 34.1C171.304 34.42 171.924 34.58 172.604 34.58C173.284 34.58 173.904 34.42 174.464 34.1C175.037 33.7667 175.49 33.2933 175.824 32.68C176.157 32.0533 176.324 31.3267 176.324 30.5ZM182.179 23.26C181.833 23.26 181.539 23.14 181.299 22.9C181.059 22.66 180.939 22.3667 180.939 22.02C180.939 21.6733 181.059 21.38 181.299 21.14C181.539 20.9 181.833 20.78 182.179 20.78C182.513 20.78 182.793 20.9 183.019 21.14C183.259 21.38 183.379 21.6733 183.379 22.02C183.379 22.3667 183.259 22.66 183.019 22.9C182.793 23.14 182.513 23.26 182.179 23.26ZM183.059 25.04V36H181.239V25.04H183.059ZM187.981 21.2V36H186.161V21.2H187.981Z" fill="white"/>
<rect x="1" y="1" width="485" height="55" rx="2" stroke="#A3F3BE" stroke-width="2"/>
<rect x="372" width="115" height="57" fill="#A3F3BE"/>
<path d="M399.08 36.14C398.147 36.14 397.307 35.98 396.56 35.66C395.813 35.3267 395.227 34.86 394.8 34.26C394.373 33.66 394.16 32.96 394.16 32.16H396.6C396.653 32.76 396.887 33.2533 397.3 33.64C397.727 34.0267 398.32 34.22 399.08 34.22C399.867 34.22 400.48 34.0333 400.92 33.66C401.36 33.2733 401.58 32.78 401.58 32.18C401.58 31.7133 401.44 31.3333 401.16 31.04C400.893 30.7467 400.553 30.52 400.14 30.36C399.74 30.2 399.18 30.0267 398.46 29.84C397.553 29.6 396.813 29.36 396.24 29.12C395.68 28.8667 395.2 28.48 394.8 27.96C394.4 27.44 394.2 26.7467 394.2 25.88C394.2 25.08 394.4 24.38 394.8 23.78C395.2 23.18 395.76 22.72 396.48 22.4C397.2 22.08 398.033 21.92 398.98 21.92C400.327 21.92 401.427 22.26 402.28 22.94C403.147 23.6067 403.627 24.5267 403.72 25.7H401.2C401.16 25.1933 400.92 24.76 400.48 24.4C400.04 24.04 399.46 23.86 398.74 23.86C398.087 23.86 397.553 24.0267 397.14 24.36C396.727 24.6933 396.52 25.1733 396.52 25.8C396.52 26.2267 396.647 26.58 396.9 26.86C397.167 27.1267 397.5 27.34 397.9 27.5C398.3 27.66 398.847 27.8333 399.54 28.02C400.46 28.2733 401.207 28.5267 401.78 28.78C402.367 29.0333 402.86 29.4267 403.26 29.96C403.673 30.48 403.88 31.18 403.88 32.06C403.88 32.7667 403.687 33.4333 403.3 34.06C402.927 34.6867 402.373 35.1933 401.64 35.58C400.92 35.9533 400.067 36.14 399.08 36.14ZM408.83 22.1V30.96C408.83 32.0133 409.104 32.8067 409.65 33.34C410.21 33.8733 410.984 34.14 411.97 34.14C412.97 34.14 413.744 33.8733 414.29 33.34C414.85 32.8067 415.13 32.0133 415.13 30.96V22.1H417.41V30.92C417.41 32.0533 417.164 33.0133 416.67 33.8C416.177 34.5867 415.517 35.1733 414.69 35.56C413.864 35.9467 412.95 36.14 411.95 36.14C410.95 36.14 410.037 35.9467 409.21 35.56C408.397 35.1733 407.75 34.5867 407.27 33.8C406.79 33.0133 406.55 32.0533 406.55 30.92V22.1H408.83ZM427.819 28.86C428.566 28.9933 429.199 29.3867 429.719 30.04C430.239 30.6933 430.499 31.4333 430.499 32.26C430.499 32.9667 430.312 33.6067 429.939 34.18C429.579 34.74 429.052 35.1867 428.359 35.52C427.666 35.84 426.859 36 425.939 36H420.379V22.1H425.679C426.626 22.1 427.439 22.26 428.119 22.58C428.799 22.9 429.312 23.3333 429.659 23.88C430.006 24.4133 430.179 25.0133 430.179 25.68C430.179 26.48 429.966 27.1467 429.539 27.68C429.112 28.2133 428.539 28.6067 427.819 28.86ZM422.659 27.94H425.479C426.226 27.94 426.806 27.7733 427.219 27.44C427.646 27.0933 427.859 26.6 427.859 25.96C427.859 25.3333 427.646 24.8467 427.219 24.5C426.806 24.14 426.226 23.96 425.479 23.96H422.659V27.94ZM425.739 34.14C426.512 34.14 427.119 33.9533 427.559 33.58C427.999 33.2067 428.219 32.6867 428.219 32.02C428.219 31.34 427.986 30.8 427.519 30.4C427.052 30 426.432 29.8 425.659 29.8H422.659V34.14H425.739ZM447.617 22.1V36H445.337V26.48L441.097 36H439.517L435.257 26.48V36H432.977V22.1H435.437L440.317 33L445.177 22.1H447.617ZM452.893 22.1V36H450.613V22.1H452.893ZM464.867 22.1V23.96H461.167V36H458.887V23.96H455.167V22.1H464.867Z" fill="#224F34"/>
</svg>
